<svg width="28" height="24" viewBox="0 0 28 24" fill="none" xmlns="http://www.w3.org/2000/svg">
<path d="M6.72083 0.0719776C6.41043 0.125961 6.34296 0.220432 6.27548 0.625305C6.12703 1.48903 6.00556 1.65098 5.2633 1.9074C4.57503 2.15033 4.54803 2.15033 4.26463 1.9074C3.57635 1.2866 3.60334 1.2866 2.7801 1.98838C2.34824 2.35276 1.8489 2.8656 1.65997 3.12202L1.32257 3.59437L1.68696 4.1342L2.05134 4.67404L1.74094 5.49728C1.48452 6.23955 1.40355 6.32052 1.06616 6.32052C0.863722 6.32052 0.539826 6.3745 0.350887 6.45548C0.0134957 6.57694 0 6.61743 0 7.85904V9.14114L0.688278 9.23561C1.36306 9.33008 1.37656 9.34357 1.70045 10.0589C2.03784 10.8416 2.01085 11.0305 1.49802 11.5029C1.33607 11.6514 1.21461 11.8133 1.21461 11.8943C1.21461 12.1372 2.1863 13.3383 2.7801 13.8377L3.38741 14.3235L3.85976 13.8647C4.30511 13.4328 4.3456 13.4193 4.69649 13.6217L5.06087 13.8242L5.07436 18.0618C5.08786 22.5694 5.10136 22.7584 5.76264 23.3522C6.46442 24 6.5319 24 14.6428 24C22.9156 24 22.7672 24.0135 23.2665 23.2712C23.4419 22.9878 23.4824 22.5154 23.4824 20.3831C23.4824 18.9796 23.4419 17.8054 23.4015 17.7514C23.361 17.711 23.2395 17.711 23.1315 17.7514C22.9831 17.8054 22.9426 18.2913 22.9426 20.2482V22.6639L22.5782 23.0013L22.2273 23.3252L14.4269 23.2982L6.62636 23.2577L6.2215 22.8663C5.50623 22.1781 5.50623 21.1794 6.208 20.4776C6.8153 19.8703 7.98943 19.9917 8.3673 20.6935C8.65071 21.2064 8.46177 21.4358 7.76 21.4358C7.11221 21.4358 6.78831 21.7462 7.16619 21.9891C7.38212 22.1376 8.62372 22.0026 8.86664 21.8137C9.0016 21.7057 9.04209 20.1132 9.06908 14.9713L9.10956 8.27741L14.4134 8.23692C19.5687 8.20993 19.7037 8.19643 19.7037 7.94001C19.7037 7.68359 19.5822 7.6701 17.4499 7.64311L15.1826 7.60262L15.1421 7.04929C15.1016 6.44198 14.9262 6.32052 14.1299 6.32052C13.9005 6.32052 13.7251 6.23955 13.6846 6.0776C13.6441 5.95613 13.4822 5.56476 13.3337 5.21387L13.0503 4.59306L13.4822 4.1342C13.7116 3.89128 13.9005 3.64836 13.9005 3.59437C13.9005 3.40543 12.9963 2.33927 12.389 1.82643L11.7547 1.30009L11.2014 1.73196C10.6481 2.17732 10.6346 2.17732 10.1757 1.94789C9.9193 1.82643 9.6224 1.73196 9.50094 1.73196C9.27151 1.73196 9.04209 1.20562 9.04209 0.652296C9.04209 0.395876 8.94762 0.206936 8.78567 0.112465C8.52925 -0.0224934 7.4631 -0.0359879 6.72083 0.0719776ZM8.3673 1.00319C8.44828 1.19213 8.50226 1.48903 8.50226 1.67797C8.50226 1.9074 8.61023 2.05586 8.88014 2.16382C9.08257 2.2448 9.56842 2.46073 9.97329 2.63618L10.7021 2.94658L11.1474 2.60918C11.3903 2.42024 11.6333 2.27179 11.7007 2.27179C11.7547 2.28528 12.1056 2.5417 12.47 2.8656L13.1448 3.45942L12.7129 3.94526C12.47 4.21518 12.281 4.4581 12.281 4.4851C12.281 4.51209 12.4295 4.7955 12.6049 5.1194C12.7804 5.4433 13.0098 5.96963 13.1043 6.28003C13.2662 6.83336 13.2932 6.86035 13.9275 6.94133C14.5078 7.0223 14.5888 7.06279 14.5483 7.31921C14.5078 7.58912 14.4269 7.60262 13.2257 7.60262H11.9571L11.8492 7.0358C11.8087 6.73889 11.6333 6.23955 11.4848 5.92914C9.77085 2.59569 5.19583 2.78463 3.61683 6.26654C3.38741 6.77938 3.31993 7.17076 3.31993 8.00749C3.31993 9.30309 3.65732 10.1398 4.54803 11.0036C5.10136 11.5299 5.12835 11.5974 5.12835 12.3126C5.12835 13.1224 5.07436 13.1764 4.61551 12.8525C4.3321 12.65 4.27812 12.6635 3.81927 13.0684L3.33343 13.5003L2.71263 12.785C2.37523 12.3936 2.09183 12.0022 2.09183 11.9348C2.09183 11.8538 2.25377 11.7053 2.4697 11.6109C2.91506 11.3949 2.92856 11.26 2.4967 10.3423C2.30776 9.95088 2.11882 9.43804 2.07833 9.20862C2.01085 8.81724 1.94337 8.77675 1.33607 8.69578L0.674783 8.60131V7.80506C0.674783 7.0088 0.688278 6.99531 1.05266 6.99531C1.82191 6.99531 1.98386 6.86035 2.26727 6.0776C2.40223 5.64573 2.60466 5.1059 2.71263 4.87647C2.87457 4.4581 2.87457 4.41762 2.4967 4.02624L2.10532 3.62137L2.76661 2.94658C3.13099 2.5687 3.49537 2.27179 3.56285 2.27179C3.63033 2.27179 3.87325 2.43374 4.07569 2.63618C4.44007 2.97357 4.49405 2.98706 4.89892 2.82512C5.12835 2.73064 5.64118 2.52821 6.01906 2.37976C6.69384 2.12333 6.72083 2.09634 6.80181 1.47554C6.8423 1.11115 6.92327 0.787254 6.97725 0.746767C7.01774 0.692783 7.32814 0.652296 7.65203 0.652296C8.15137 0.652296 8.25934 0.70628 8.3673 1.00319ZM8.78567 4.39062C9.78435 4.71452 10.783 5.71321 11.1069 6.7119C11.2419 7.13027 11.2959 7.49465 11.2284 7.56213C11.1609 7.62961 10.6616 7.6701 10.1217 7.64311C9.12306 7.60262 9.12306 7.60262 9.01509 7.17076C8.88014 6.64442 8.23235 6.09109 7.62504 5.96963C6.8423 5.82118 6.208 6.02361 5.64118 6.59044L5.12835 7.10328V8.80374C5.12835 9.76194 5.07436 10.5042 5.00689 10.5042C4.76396 10.5042 4.30511 9.77544 4.10268 9.04667C3.53586 7.11677 4.50755 5.17338 6.41043 4.43111C7.26066 4.10721 7.86796 4.09372 8.78567 4.39062ZM8.08389 6.94133L8.50226 7.29222V13.5543C8.50226 19.3304 8.46177 20.1537 8.16487 19.6948C8.12438 19.6139 7.82748 19.5194 7.51708 19.4789C6.97725 19.3979 6.59937 19.4924 5.77614 19.9243C5.61419 20.0052 5.64118 7.56213 5.80313 7.26522C6.18101 6.54995 7.42261 6.3745 8.08389 6.94133Z" fill="white"/>
<path d="M22.1601 4.05301C22.0656 4.14748 21.9981 4.61983 21.9981 5.25414C21.9981 6.29331 21.9981 6.3068 21.5528 6.57672C20.5541 7.18403 20.2032 8.76304 20.8105 9.8427L21.1074 10.369L20.4326 12.7308C19.7444 15.1735 19.7174 15.214 19.0966 14.9711C18.7727 14.8361 18.4893 15.0251 18.4893 15.3625C18.4893 15.5244 18.6377 15.6324 18.9616 15.6864C19.218 15.7403 19.4474 15.8213 19.4879 15.8753C19.5149 15.9293 19.299 16.82 19.0021 17.8592C18.5028 19.6541 18.4758 19.8026 18.5837 20.8957C18.6647 21.7325 18.7457 22.0429 18.8806 22.0429C18.9886 22.0429 19.137 21.9214 19.218 21.773C19.2855 21.6245 19.5284 21.2331 19.7444 20.9227C19.9873 20.5718 20.3921 19.5192 20.7295 18.3585C21.0534 17.2789 21.3368 16.3881 21.3638 16.3747C21.4988 16.2667 22.403 16.5096 22.403 16.6446C22.403 16.9685 22.8618 17.0224 23.0643 16.7255C23.1857 16.5231 23.3882 16.4421 23.7391 16.4421H24.2519L24.7782 18.2911C25.1291 19.5597 25.426 20.3289 25.7094 20.7068C25.9254 21.0172 26.2223 21.4491 26.3437 21.692C26.7081 22.3533 26.9645 22.1238 26.9645 21.0982C26.9645 20.6123 27.005 20.113 27.0455 19.978C27.086 19.8431 26.8836 18.9254 26.5866 17.9402C25.9658 15.8888 25.9524 15.7673 26.3032 15.7673C26.7756 15.7673 26.9915 15.6054 26.9915 15.268C26.9915 14.9711 26.951 14.9441 26.3572 14.9846L25.7229 15.0251L25.0616 12.7308L24.4138 10.4365L24.7242 9.85619C25.1021 9.15441 25.1291 8.08825 24.7917 7.42695C24.6568 7.19753 24.3194 6.83314 24.0225 6.6442L23.4826 6.27981V5.25414C23.4826 4.0935 23.3747 3.89106 22.7404 3.89106C22.511 3.89106 22.2545 3.95854 22.1601 4.05301ZM22.9428 5.38909C22.9428 5.98291 22.9023 6.19884 22.7809 6.15835C22.5919 6.09087 22.4705 4.94373 22.5919 4.60634C22.7539 4.18797 22.9428 4.61983 22.9428 5.38909ZM23.4961 7.06257C24.0225 7.34598 24.4273 8.02077 24.4273 8.61458C24.4273 9.5323 23.6041 10.369 22.6999 10.369C22.0926 10.369 21.4178 9.8427 21.1884 9.18141C21.0129 8.68206 21.0129 8.5471 21.1884 8.04776C21.5393 7.03558 22.5784 6.60371 23.4961 7.06257ZM21.9846 10.8954C22.1466 11.0033 22.1466 11.1383 21.9441 11.8806C21.3503 14.0804 20.878 15.6324 20.797 15.6324C20.5001 15.6189 20.3517 15.3625 20.4326 15.0116C20.689 13.9319 21.6472 10.7739 21.7147 10.7739C21.7552 10.7739 21.8767 10.8279 21.9846 10.8954ZM24.0765 11.3137C24.1439 11.5702 24.4273 12.5958 24.7108 13.5945C24.9942 14.5932 25.1966 15.4569 25.1561 15.5244C25.0212 15.7403 24.6838 15.6324 24.5623 15.322C24.2789 14.6877 23.3477 11.0168 23.4287 10.8954C23.5906 10.6255 23.955 10.8549 24.0765 11.3137ZM23.4152 13.5405C23.7526 14.7147 23.982 15.7134 23.955 15.7808C23.8605 15.9158 21.9441 15.9023 21.7147 15.7538C21.5798 15.6729 21.6472 15.2545 21.9981 13.9184C22.6594 11.3542 22.6864 11.2867 22.7539 11.3542C22.7944 11.3812 23.0913 12.3664 23.4152 13.5405ZM20.6756 16.2802C20.5676 17.009 19.7174 19.7891 19.4609 20.194L19.2045 20.6393L19.1236 20.2614C19.0696 20.0185 19.2315 19.1818 19.5959 17.8862C20.1087 16.1047 20.2032 15.8888 20.4461 15.9293C20.6486 15.9563 20.7025 16.0508 20.6756 16.2802ZM25.9658 17.9267C26.2358 18.8579 26.4517 19.8296 26.4517 20.086C26.4517 20.5448 26.4517 20.5448 26.1818 20.2884C26.0333 20.1265 25.6824 19.2223 25.345 18.0886C24.8727 16.4691 24.8187 16.1317 24.9807 16.0373C25.2911 15.8348 25.4395 16.1182 25.9658 17.9267Z" fill="white"/>
<path d="M22.1327 7.94065C21.7683 8.30504 21.7818 8.89885 22.1732 9.26324C22.794 9.84356 23.6172 9.47917 23.6172 8.62894C23.6172 7.75171 22.74 7.33334 22.1327 7.94065ZM23.0504 8.53447C23.1178 8.85837 22.9154 9.04731 22.632 8.93934C22.4026 8.85837 22.3216 8.46699 22.497 8.29154C22.659 8.1296 23.0099 8.27805 23.0504 8.53447Z" fill="white"/>
<path d="M10.4854 10.6799L10.1885 10.8013L10.4989 10.9228C10.7418 11.0173 10.7958 11.1522 10.8093 11.6111L10.8228 12.1914L10.9847 11.5976L11.1467 10.9903L13.0631 10.9633C14.6285 10.9363 14.9929 10.9633 15.0874 11.1252C15.1819 11.2872 15.2359 11.2872 15.4383 11.0578C15.6407 10.8283 15.6542 10.7609 15.5058 10.7204C15.1684 10.5989 10.7823 10.5719 10.4854 10.6799Z" fill="white"/>
<path d="M15.1162 12.1784C15.1162 12.4753 15.1567 12.5428 15.2647 12.4348C15.3726 12.3268 15.3726 12.2189 15.2647 12.0299C15.1432 11.814 15.1297 11.841 15.1162 12.1784Z" fill="white"/>
<path d="M19.0283 13.1354C19.0283 13.7022 19.0688 13.8777 19.2308 13.8777C19.3792 13.8777 19.4332 13.7292 19.4332 13.3514C19.4332 12.7575 19.3252 12.3932 19.1498 12.3932C19.0823 12.3932 19.0283 12.7305 19.0283 13.1354Z" fill="white"/>
<path d="M10.7695 13.8776C10.7425 14.7683 10.675 15.1462 10.5266 15.2407C10.3781 15.3486 10.3646 15.4026 10.4996 15.4566C10.5805 15.4836 10.6615 15.713 10.6615 15.9559C10.6615 16.7927 10.837 18.0613 10.9449 18.0613C11.0124 18.0613 11.0664 17.5214 11.0664 16.8602C11.0664 15.713 11.0799 15.6455 11.3768 15.605C11.5387 15.5781 11.6737 15.4971 11.6737 15.4296C11.6737 15.3486 11.5387 15.2812 11.3768 15.2542C11.0799 15.2137 11.0664 15.1462 11.0664 14.0125C11.0664 12.42 10.837 12.3256 10.7695 13.8776Z" fill="white"/>
<path d="M15.1151 13.2034C15.1151 13.2844 14.8721 13.4328 14.5752 13.5543C13.9679 13.7972 13.3606 14.445 13.3606 14.8364C13.3606 15.0118 13.2122 15.1738 12.9288 15.2953L12.4834 15.4707L12.8883 15.5247C13.2122 15.5517 13.2931 15.6461 13.3741 16.0105C13.4956 16.5908 13.833 16.9552 14.5482 17.2656C14.8586 17.4006 15.1151 17.603 15.1151 17.7245C15.1151 18.0484 15.358 17.9674 15.412 17.6165C15.4389 17.4276 15.5604 17.3061 15.7628 17.2791C16.1677 17.2117 17.0044 16.3749 17.0044 16.024C17.0044 15.8621 17.1124 15.7136 17.2744 15.6731C17.6117 15.5787 17.6252 15.2818 17.3013 15.1873C17.1529 15.1603 17.0179 14.9579 16.964 14.7284C16.8695 14.2696 16.1137 13.4733 15.7628 13.4733C15.3985 13.4733 15.4659 13.7162 15.9248 13.9457C16.4376 14.2156 16.829 14.9174 16.6266 15.2413C16.5321 15.3897 16.5321 15.5112 16.6266 15.6057C16.7345 15.7136 16.7345 15.8486 16.6401 16.078C16.4646 16.4559 15.385 17.3466 15.385 17.1172C15.385 17.0227 15.2905 16.9822 15.169 17.0362C14.7102 17.2117 13.6305 16.2804 13.6305 15.7001C13.6305 15.5247 13.752 15.4842 14.3458 15.5247C14.9531 15.5652 15.0476 15.6057 15.0881 15.8621C15.142 16.2804 15.385 16.2535 15.385 15.8486C15.385 15.5787 15.4524 15.5247 15.7089 15.5382C15.8978 15.5517 16.0463 15.4977 16.0463 15.4302C16.0463 15.3492 15.9248 15.3087 15.7763 15.3222C15.6009 15.3492 15.4524 15.2413 15.3445 14.9983L15.1825 14.6475L15.1151 14.9714C15.0206 15.3357 14.6697 15.4302 13.9409 15.2953L13.4821 15.2143L13.779 14.6879C14.1029 14.1211 14.9801 13.5543 15.0746 13.8512C15.1151 13.9322 15.196 13.9862 15.2635 13.9322C15.4255 13.8377 15.4255 13.0684 15.25 13.0684C15.1825 13.0684 15.1151 13.1359 15.1151 13.2034Z" fill="white"/>
<path d="M12.0106 18.6684C12.5639 19.2353 13.1847 19.5457 13.792 19.5457C14.2104 19.5322 14.2239 19.5322 13.981 19.3432C13.8325 19.2353 13.6166 19.1408 13.4816 19.1408C13.3602 19.1408 13.1847 19.0463 13.0903 18.9383C12.9958 18.8304 12.8069 18.7359 12.6584 18.7359C12.5099 18.7359 12.3615 18.6144 12.321 18.466C12.267 18.2905 12.1321 18.1961 11.9026 18.1961H11.5518L12.0106 18.6684Z" fill="white"/>
<path d="M15.1286 18.5482C15.1286 18.6967 15.1691 18.7372 15.2096 18.6292C15.2501 18.5347 15.2366 18.4133 15.1961 18.3728C15.1556 18.3188 15.1151 18.3998 15.1286 18.5482Z" fill="white"/>
<path d="M10.7292 19.6408C10.6752 20.1131 10.5672 20.356 10.4458 20.356C10.3378 20.356 10.2568 20.437 10.2568 20.5315C10.2568 20.6799 10.7022 20.7069 12.6186 20.6529C14.2246 20.6125 14.9803 20.6394 14.9803 20.7339C14.9803 20.8149 14.8993 20.9094 14.8184 20.9364C14.5485 21.0578 14.9938 21.3142 15.3177 21.2333C15.4662 21.2063 15.9925 21.1658 16.5053 21.1658C17.0182 21.1658 17.4095 21.1118 17.4095 21.0308C17.4095 20.9499 16.9777 20.8959 16.3974 20.8959H15.3852V20.1401C15.3852 19.6003 15.3312 19.3978 15.2232 19.4383C15.1288 19.4788 15.0343 19.6947 15.0073 19.9242L14.9668 20.356H13.0099H11.0666L11.0531 19.9107C11.0531 19.6812 10.9991 19.3574 10.9451 19.2089C10.8641 19.0065 10.8102 19.1009 10.7292 19.6408Z" fill="white"/>
</svg>
